<?xml version="1.0" encoding="UTF-8"?>
<svg version="1.1" xmlns="http://www.w3.org/2000/svg" width="256" height="256">
<path d="M0 0 C18.81 0 37.62 0 57 0 C57.495 1.98 57.495 1.98 58 4 C57.34 4.33 56.68 4.66 56 5 C55.25252339 6.81600743 55.25252339 6.81600743 54.66015625 9.0078125 C53.10102838 13.95664703 50.92280108 18.33415627 48.4375 22.875 C47.83905273 23.99261719 47.83905273 23.99261719 47.22851562 25.1328125 C42.61866346 33.69066827 42.61866346 33.69066827 40 35 C37.4375 34.3125 37.4375 34.3125 35 33 C34.375 31.125 34.375 31.125 34 29 C33.46375 28.38125 32.9275 27.7625 32.375 27.125 C31 25 31 25 31.1875 22 C32 19 32 19 34 15 C30.37 15.33 26.74 15.66 23 16 C23.433125 16.83144531 23.86625 17.66289063 24.3125 18.51953125 C24.869375 19.60621094 25.42625 20.69289063 26 21.8125 C26.556875 22.89144531 27.11375 23.97039062 27.6875 25.08203125 C29 28 29 28 29 31 C29.495 31.495 29.99 31.99 30.5 32.5 C30.995 32.995 31.49 33.49 32 34 C32 34.99 32 35.98 32 37 C32.97753644 38.02196992 33.9805881 39.01979625 35 40 C36.52487548 42.62617444 37.2687096 45.0748384 38 48 C38.97387332 50.22599615 39.97922438 51.97403047 41.5 53.875 C43.3150485 56.44631871 44.06962964 59.00952385 45 62 C45.33 62.33 45.66 62.66 46 63 C46.68753301 64.65816784 47.35561283 66.32459336 48 68 C47.525625 68.4125 47.05125 68.825 46.5625 69.25 C44.83733482 71.182185 44.43415125 72.48192275 44 75 C43.34 75 42.68 75 42 75 C41.855625 75.969375 41.71125 76.93875 41.5625 77.9375 C41 81 41 81 40 82 C39.7525 82.66 39.505 83.32 39.25 84 C37.04735521 89.2863475 34.17392468 94.23911298 31 99 C29 99.75 29 99.75 27 100 C24.41435356 98.70717678 24.21759713 97.59961432 23 95 C21.42128574 92.18203595 19.83570435 89.36821556 18.2421875 86.55859375 C17 84 17 84 17 81 C16.02037222 79.9800346 15.01648658 78.98323702 14 78 C12.578125 75.6953125 12.578125 75.6953125 11.25 73.125 C10.80140625 72.28195313 10.3528125 71.43890625 9.890625 70.5703125 C8.83614177 67.52711089 9.02192781 66.03901001 10 63 C11.27754554 60.9639118 12.60699818 58.95890881 14 57 C14.33 56.34 14.66 55.68 15 55 C16.875 54.1875 16.875 54.1875 19 54 C21.94194298 56.03672975 22.79460415 58.72821126 24 62 C24.495 62.495 24.495 62.495 25 63 C25.66666667 65 26.33333333 67 27 69 C27.66 69 28.32 69 29 69 C29.81623851 66.66863297 30.1475769 65.42353241 29.32250977 63.05566406 C28.94924561 62.38245117 28.57598145 61.70923828 28.19140625 61.015625 C27.77810059 60.25354736 27.36479492 59.49146973 26.93896484 58.70629883 C26.48473145 57.89572021 26.03049805 57.0851416 25.5625 56.25 C24.62750695 54.53070815 23.6939332 52.81064376 22.76171875 51.08984375 C22.2929834 50.23116699 21.82424805 49.37249023 21.34130859 48.48779297 C19.44276392 44.96646603 17.64845703 41.39806518 15.875 37.8125 C15.55708496 37.17231934 15.23916992 36.53213867 14.91162109 35.87255859 C14.27034212 34.58056528 13.62971629 33.28824757 12.98974609 31.99560547 C11.23163372 28.45075827 9.4585408 24.91340045 7.6875 21.375 C7.04550939 20.0911776 6.40357908 18.80732504 5.76171875 17.5234375 C4.61900282 15.23800564 3.46842047 12.9564836 2.30859375 10.6796875 C1.19246468 8.3941217 0.52808923 6.46441639 0 4 C-0.33 3.34 -0.66 2.68 -1 2 C-0.67 1.34 -0.34 0.68 0 0 Z M19 13 C19.33 13.66 19.66 14.32 20 15 C25.61 15 31.22 15 37 15 C37 14.34 37 13.68 37 13 C31.06 13 25.12 13 19 13 Z M32 22 C33 24 33 24 33 24 Z M41 56 C42 58 42 58 42 58 Z M10 65 C11 67 11 67 11 67 Z M31 66 C32 69 32 69 32 69 Z M27 72 C27.66 72.66 28.32 73.32 29 74 C29 73.34 29 72.68 29 72 C28.34 72 27.68 72 27 72 Z M15 75 C16 77 16 77 16 77 Z " fill="#E3E3E3" transform="translate(93,74)"/>
<path d="M0 0 C18.81 0 37.62 0 57 0 C57.495 1.98 57.495 1.98 58 4 C57.34 4.33 56.68 4.66 56 5 C55.25252339 6.81600743 55.25252339 6.81600743 54.66015625 9.0078125 C53.10102838 13.95664703 50.92280108 18.33415627 48.4375 22.875 C47.83905273 23.99261719 47.83905273 23.99261719 47.22851562 25.1328125 C42.61866346 33.69066827 42.61866346 33.69066827 40 35 C37.4375 34.3125 37.4375 34.3125 35 33 C34.375 31.125 34.375 31.125 34 29 C33.46375 28.38125 32.9275 27.7625 32.375 27.125 C31 25 31 25 31.3125 21.75 C31.6528125 20.38875 31.6528125 20.38875 32 19 C33.32 19 34.64 19 36 19 C36 18.34 36 17.68 36 17 C36.66 17 37.32 17 38 17 C38.33 15.35 38.66 13.7 39 12 C28.605 12.495 28.605 12.495 18 13 C18.99 14.98 19.98 16.96 21 19 C20.80016695 22.39716185 19.12245699 24.41613931 17 27 C17.99 28.32 18.98 29.64 20 31 C19.01 31.66 18.02 32.32 17 33 C17 32.34 17 31.68 17 31 C16.26007813 30.99355469 15.52015625 30.98710938 14.7578125 30.98046875 C11.06013927 29.66585688 10.50608433 27.94700945 8.86328125 24.51757812 C8.53714844 23.78990234 8.21101563 23.06222656 7.875 22.3125 C7.54113281 21.60416016 7.20726563 20.89582031 6.86328125 20.16601562 C6.20629291 18.77088156 5.55653607 17.37231599 4.91455078 15.97021484 C4.07875019 14.16965137 3.19036866 12.39373599 2.296875 10.62109375 C1.17697752 8.3576865 0.52444937 6.44743037 0 4 C-0.33 3.34 -0.66 2.68 -1 2 C-0.67 1.34 -0.34 0.68 0 0 Z M32 22 C33 24 33 24 33 24 Z " fill="#D1D1D1" transform="translate(93,74)"/>
<path d="M0 0 C5.21018084 -0.72419502 9.81261167 -1.03854833 15 0 C18.5479842 3.46059542 20.14370643 7.45823274 22 12 C22.92553502 13.81863889 23.86198397 15.63179189 24.8125 17.4375 C25.9399257 19.71159075 26.97920469 21.94485531 27.875 24.3203125 C28.80200837 26.52839493 29.79825204 28.48637222 30.98046875 30.55859375 C31.33947266 31.19216797 31.69847656 31.82574219 32.06835938 32.47851562 C32.81567833 33.78664986 33.5735746 35.08879675 34.34179688 36.38476562 C36.15284265 39.62229754 37.02425655 41.41570252 36.8671875 45.19921875 C36.07319962 47.76358502 35.20092734 50.01116821 33.9375 52.375 C33.39416016 53.40753906 33.39416016 53.40753906 32.83984375 54.4609375 C32.56269531 54.96882813 32.28554687 55.47671875 32 56 C29.69 56 27.38 56 25 56 C23.9956049 53.58945177 23.06741012 51.30334552 22.5 48.75 C22.2525 47.88375 22.2525 47.88375 22 47 C21.34 46.67 20.68 46.34 20 46 C18.59452138 43.43500152 17.27688999 40.87780259 16 38.25 C15.64421875 37.53328125 15.2884375 36.8165625 14.921875 36.078125 C13.53153135 33.2559349 12.18248325 30.46362222 11.02954102 27.53442383 C10.03569258 25.08786453 8.90677443 22.81821058 7.65234375 20.49609375 C7.21212891 19.67302734 6.77191406 18.84996094 6.31835938 18.00195312 C5.39527755 16.28765831 4.4707902 14.5741196 3.54492188 12.86132812 C2.8865332 11.62866211 2.8865332 11.62866211 2.21484375 10.37109375 C1.81386475 9.62786865 1.41288574 8.88464355 0.99975586 8.11889648 C0.02583991 6.05476547 -0.63629899 4.25197727 -1 2 C-0.67 1.34 -0.34 0.68 0 0 Z M29 31 C30 33 30 33 30 33 Z M35 43 C36 45 36 45 36 45 Z " fill="#DEDEDE" transform="translate(71,74)"/>
<path d="M0 0 C1.93166016 0.01740234 1.93166016 0.01740234 3.90234375 0.03515625 C5.19269531 0.04417969 6.48304688 0.05320312 7.8125 0.0625 C8.81152344 0.07410156 9.81054688 0.08570312 10.83984375 0.09765625 C11.49984375 1.41765625 12.15984375 2.73765625 12.83984375 4.09765625 C12.38609375 4.63390625 11.93234375 5.17015625 11.46484375 5.72265625 C9.7223277 8.03036843 9.7223277 8.03036843 8.96484375 10.78515625 C7.69384901 14.52752964 6.01370525 17.9657234 4.21484375 21.47265625 C3.49720757 22.88792539 2.77976537 24.3032929 2.0625 25.71875 C1.69527832 26.44046387 1.32805664 27.16217773 0.94970703 27.90576172 C-0.4929359 30.75487045 -1.90989613 33.61635539 -3.32592773 36.47875977 C-4.63541392 39.11431584 -5.96741619 41.73825644 -7.29785156 44.36328125 C-8.07023755 45.91680052 -8.80161987 47.49054868 -9.52734375 49.06640625 C-10.60702655 51.29633935 -11.54538622 53.2202429 -13.16015625 55.09765625 C-16.97265625 56.16015625 -16.97265625 56.16015625 -20.16015625 56.09765625 C-25.16015625 48.46789846 -25.16015625 48.46789846 -25.16015625 43.22265625 C-24.16742726 40.12037817 -23.52074537 39.16317173 -21.16015625 37.09765625 C-21.02609375 36.53820312 -20.89203125 35.97875 -20.75390625 35.40234375 C-19.9638051 32.33550375 -18.59027027 29.73256877 -17.16015625 26.91015625 C-16.62390625 25.84410156 -16.08765625 24.77804688 -15.53515625 23.6796875 C-14.16015625 21.09765625 -14.16015625 21.09765625 -13.16015625 20.09765625 C-12.88300781 19.4015625 -12.60585937 18.70546875 -12.3203125 17.98828125 C-10.92596997 14.51416182 -9.2786473 11.18884259 -7.59765625 7.84765625 C-7.28119141 7.21085937 -6.96472656 6.5740625 -6.63867188 5.91796875 C-3.73116534 0.11530177 -3.73116534 0.11530177 0 0 Z M-18.16015625 31.09765625 C-17.16015625 33.09765625 -17.16015625 33.09765625 -17.16015625 33.09765625 Z M-24.16015625 43.09765625 C-23.16015625 46.09765625 -23.16015625 46.09765625 -23.16015625 46.09765625 Z " fill="#E4E4E4" transform="translate(160.16015625,73.90234375)"/>
<path d="M0 0 C2.375 0.125 2.375 0.125 5 1 C7.20970874 3.89548041 8 5.33157745 8 9 C8.66 9.33 9.32 9.66 10 10 C9.67 12.97 9.34 15.94 9 19 C9.66 19 10.32 19 11 19 C11.66 19.66 12.32 20.32 13 21 C13.185625 20.401875 13.37125 19.80375 13.5625 19.1875 C15.70764448 15.92314971 18.38475374 15.22660141 22 14 C22.66 14.33 23.32 14.66 24 15 C24.33 14.34 24.66 13.68 25 13 C25 13.66 25 14.32 25 15 C25.66 15.33 26.32 15.66 27 16 C26.52556358 20.11178233 25.99930753 23.37625511 24 27 C23.81244141 27.87398437 23.81244141 27.87398437 23.62109375 28.765625 C22.82540875 31.62808928 21.50606394 33.9683203 20.0625 36.5625 C19.53785156 37.51253906 19.01320312 38.46257812 18.47265625 39.44140625 C15.34850329 44.86931127 15.34850329 44.86931127 13 45.75 C11 46 11 46 9 45 C8.28951821 43.68948947 7.63229478 42.34997242 7 41 C5.42128574 38.18203595 3.83570435 35.36821556 2.2421875 32.55859375 C1 30 1 30 1 27 C0.02037222 25.9800346 -0.98351342 24.98323702 -2 24 C-3.421875 21.6953125 -3.421875 21.6953125 -4.75 19.125 C-5.19859375 18.28195313 -5.6471875 17.43890625 -6.109375 16.5703125 C-7.16385823 13.52711089 -6.97807219 12.03901001 -6 9 C-4.72245446 6.9639118 -3.39300182 4.95890881 -2 3 C-1.67 2.34 -1.34 1.68 -1 1 C-0.67 0.67 -0.34 0.34 0 0 Z M-6 11 C-5 13 -5 13 -5 13 Z M-1 21 C0 23 0 23 0 23 Z " fill="#DFDFDF" transform="translate(109,128)"/>
<path d="M0 0 C4.95 0 9.9 0 15 0 C19.00390625 6.8359375 19.00390625 6.8359375 20 9 C19.67 9.66 19.34 10.32 19 11 C18.01 10.67 17.02 10.34 16 10 C15.18359375 8.1875 15.18359375 8.1875 14.4375 6 C13.53981322 3.77249184 13.53981322 3.77249184 12 2 C8.65245265 0.9878282 5.48079455 0.8937162 2 1 C2.51691406 1.98742187 3.03382812 2.97484375 3.56640625 3.9921875 C4.23218866 5.28624345 4.89753054 6.58052612 5.5625 7.875 C5.90474609 8.52597656 6.24699219 9.17695312 6.59960938 9.84765625 C7.46082891 11.53529857 8.23686703 13.26579593 9 15 C8.67 15.66 8.34 16.32 8 17 C5 16 5 16 3.359375 13.41796875 C2.82828125 12.35191406 2.2971875 11.28585938 1.75 10.1875 C1.20859375 9.12917969 0.6671875 8.07085937 0.109375 6.98046875 C-1 4 -1 4 0 0 Z " fill="#343434" transform="translate(71,74)"/>
<path d="M0 0 C0.99 0 1.98 0 3 0 C1.25180861 6.11866987 -1.18027712 11.68941333 -4 17.375 C-4.34417969 18.07689453 -4.68835938 18.77878906 -5.04296875 19.50195312 C-6.70191564 22.79124436 -8.18463883 25.5987163 -11 28 C-11.66 28 -12.32 28 -13 28 C-12.39368083 24.03850535 -11.15202596 21.01276471 -9.27734375 17.48046875 C-8.73916016 16.45888672 -8.20097656 15.43730469 -7.64648438 14.38476562 C-7.08251953 13.32966797 -6.51855469 12.27457031 -5.9375 11.1875 C-5.36966797 10.11306641 -4.80183594 9.03863281 -4.21679688 7.93164062 C-2.81685582 5.28469325 -1.41109888 2.64101101 0 0 Z " fill="#414141" transform="translate(160,95)"/>
<path d="M0 0 C7.26 0 14.52 0 22 0 C21.67 1.65 21.34 3.3 21 5 C20.34 5 19.68 5 19 5 C18.67 5.66 18.34 6.32 18 7 C17.34 6.34 16.68 5.68 16 5 C16.33 4.34 16.66 3.68 17 3 C11.555 3.495 11.555 3.495 6 4 C6.33 5.65 6.66 7.3 7 9 C6.01 9 5.02 9 4 9 C2.68 6.03 1.36 3.06 0 0 Z M2 1 C2.33 1.66 2.66 2.32 3 3 C8.61 3 14.22 3 20 3 C20 2.34 20 1.68 20 1 C14.06 1 8.12 1 2 1 Z " fill="#666666" transform="translate(110,86)"/>
<path d="M0 0 C0.99 0 1.98 0 3 0 C4.70037584 3.28517057 6.38306535 6.57908139 8.0625 9.875 C8.54783203 10.81214844 9.03316406 11.74929687 9.53320312 12.71484375 C9.98759766 13.61074219 10.44199219 14.50664063 10.91015625 15.4296875 C11.33433838 16.25710449 11.75852051 17.08452148 12.19555664 17.93701172 C12.5937561 18.95819092 12.5937561 18.95819092 13 20 C12.67 20.66 12.34 21.32 12 22 C9 21 9 21 7.5 18.48828125 C7.005 17.44027344 6.51 16.39226562 6 15.3125 C5.505 14.27738281 5.01 13.24226563 4.5 12.17578125 C4.005 11.12777344 3.51 10.07976562 3 9 C2.443125 7.94167969 1.88625 6.88335937 1.3125 5.79296875 C0 3 0 3 0 0 Z " fill="#3C3C3C" transform="translate(107,105)"/>
<path d="M0 0 C1.85253906 0.25219727 1.85253906 0.25219727 4 1 C5.28027344 2.73413086 5.28027344 2.73413086 6.359375 4.96484375 C6.75253906 5.76470703 7.14570312 6.56457031 7.55078125 7.38867188 C7.94652344 8.22978516 8.34226562 9.07089844 8.75 9.9375 C9.16121094 10.77474609 9.57242188 11.61199219 9.99609375 12.47460938 C13 18.6770271 13 18.6770271 13 21 C11.203125 20.8359375 11.203125 20.8359375 9 20 C7.296875 17.6015625 7.296875 17.6015625 5.75 14.625 C5.22921875 13.64789063 4.7084375 12.67078125 4.171875 11.6640625 C3 9 3 9 3 6 C2.505 5.505 2.01 5.01 1.5 4.5 C1.005 4.005 0.51 3.51 0 3 C0 2.01 0 1.02 0 0 Z " fill="#494949" transform="translate(107,149)"/>
<path d="M0 0 C1.32 0.33 2.64 0.66 4 1 C3.46515599 6.34844008 1.53309233 10.35796103 -1 15 C-3.31 15 -5.62 15 -8 15 C-10.09230769 10.56923077 -10.09230769 10.56923077 -9.625 7.6875 C-9.41875 7.130625 -9.2125 6.57375 -9 6 C-8.319375 6.928125 -8.319375 6.928125 -7.625 7.875 C-6.02891081 10.05919833 -6.02891081 10.05919833 -4 12 C-0.38406443 6.45297162 -0.38406443 6.45297162 0 0 Z M2 2 C3 4 3 4 3 4 Z " fill="#474747" transform="translate(104,115)"/>
<path d="M0 0 C0.66 1.32 1.32 2.64 2 4 C1.34 4.66 0.68 5.32 0 6 C-0.21462891 6.87398437 -0.21462891 6.87398437 -0.43359375 7.765625 C-1.18362653 10.72437501 -2.57437028 13.09036391 -4.0625 15.75 C-4.61035156 16.73484375 -5.15820312 17.7196875 -5.72265625 18.734375 C-6.14417969 19.48203125 -6.56570312 20.2296875 -7 21 C-7.99 21 -8.98 21 -10 21 C-8.51991304 15.99886406 -6.3681664 11.67084403 -3.875 7.125 C-3.50246094 6.43664062 -3.12992188 5.74828125 -2.74609375 5.0390625 C-1.83500474 3.35705202 -0.91809685 1.67819564 0 0 Z " fill="#444444" transform="translate(133,149)"/>
<path d="M0 0 C2.79338987 3.43138632 4.77735487 7.18782761 6.75 11.125 C7.24306641 12.07439453 7.24306641 12.07439453 7.74609375 13.04296875 C8.56197269 14.66439906 9.28852285 16.33012128 10 18 C9.67 18.66 9.34 19.32 9 20 C6 19 6 19 4.92504883 17.44946289 C4.60560303 16.7971167 4.28615723 16.14477051 3.95703125 15.47265625 C3.60576172 14.76302734 3.25449219 14.05339844 2.89257812 13.32226562 C2.53615234 12.57654297 2.17972656 11.83082031 1.8125 11.0625 C1.44447266 10.32064453 1.07644531 9.57878906 0.69726562 8.81445312 C-2 3.29481679 -2 3.29481679 -2 1 C-1.34 0.67 -0.68 0.34 0 0 Z " fill="#444444" transform="translate(85,101)"/>
<path d="M0 0 C18.81 0 37.62 0 57 0 C57 0.33 57 0.66 57 1 C38.19 1 19.38 1 0 1 C0 0.67 0 0.34 0 0 Z " fill="#797979" transform="translate(93,72)"/>
<path d="M0 0 C1.26457031 0.05800781 2.52914062 0.11601563 3.83203125 0.17578125 C5.10433594 0.22089844 6.37664062 0.26601562 7.6875 0.3125 C8.66332031 0.37050781 9.63914063 0.42851563 10.64453125 0.48828125 C11.30453125 1.80828125 11.96453125 3.12828125 12.64453125 4.48828125 C11.32453125 4.81828125 10.00453125 5.14828125 8.64453125 5.48828125 C8.97453125 4.16828125 9.30453125 2.84828125 9.64453125 1.48828125 C8.03936028 1.57561701 6.43531463 1.68380349 4.83203125 1.80078125 C3.93871094 1.85878906 3.04539063 1.91679688 2.125 1.9765625 C-0.7047438 2.56033642 -1.64069102 3.20191095 -3.35546875 5.48828125 C-4.07744037 8.09439202 -4.07744037 8.09439202 -4.35546875 10.48828125 C-5.67546875 10.81828125 -6.99546875 11.14828125 -8.35546875 11.48828125 C-5.10694134 0.74315212 -5.10694134 0.74315212 0 0 Z " fill="#535353" transform="translate(160.35546875,73.51171875)"/>
<path d="M0 0 C0.99 0 1.98 0 3 0 C4.06092734 1.90607285 5.09820101 3.82532746 6.125 5.75 C6.70507812 6.81734375 7.28515625 7.8846875 7.8828125 8.984375 C9 12 9 12 8.1796875 14.390625 C7.59574219 15.18726563 7.59574219 15.18726563 7 16 C6.34 16 5.68 16 5 16 C4.9175 15.34 4.835 14.68 4.75 14 C3.90347066 10.61388262 2.50639062 7.91560419 0.83984375 4.8671875 C0 3 0 3 0 0 Z " fill="#4A4A4A" transform="translate(118,127)"/>
<path d="M0 0 C-0.67097672 4.19360449 -2.8558394 7.40334352 -5 11 C-6.5 9.6875 -6.5 9.6875 -8 8 C-8 7.01 -8 6.02 -8 5 C-7.34 5 -6.68 5 -6 5 C-6 4.01 -6 3.02 -6 2 C-3 0 -3 0 0 0 Z " fill="#F1F1F1" transform="translate(105,117)"/>
<path d="M0 0 C4.29 0 8.58 0 13 0 C17.00390625 6.8359375 17.00390625 6.8359375 18 9 C17.67 9.66 17.34 10.32 17 11 C16.01 10.67 15.02 10.34 14 10 C13.18359375 8.1875 13.18359375 8.1875 12.4375 6 C11.53981322 3.77249184 11.53981322 3.77249184 10 2 C6.65245265 0.9878282 3.48079455 0.8937162 0 1 C0 0.67 0 0.34 0 0 Z " fill="#5B5B5B" transform="translate(73,74)"/>
<path d="M0 0 C0.99 0 1.98 0 3 0 C2.57405412 1.44096586 2.13373367 2.87768712 1.6875 4.3125 C1.44386719 5.11300781 1.20023438 5.91351563 0.94921875 6.73828125 C-0.05354349 9.12757893 -0.98059282 10.39589507 -3 12 C-3.66 12 -4.32 12 -5 12 C-4.42365861 7.24518354 -2.44931479 4.02951788 0 0 Z " fill="#454545" transform="translate(168,79)"/>
<path d="M0 0 C0.99 0 1.98 0 3 0 C3.66 1.65 4.32 3.3 5 5 C4.525625 5.4125 4.05125 5.825 3.5625 6.25 C1.83733482 8.182185 1.43415125 9.48192275 1 12 C0.01 12 -0.98 12 -2 12 C-1.855625 11.319375 -1.71125 10.63875 -1.5625 9.9375 C-0.93054091 6.63726918 -0.45686059 3.32855574 0 0 Z " fill="#404040" transform="translate(136,137)"/>
<path d="M0 0 C1.48831242 0.00667405 2.97660807 0.01863442 4.46484375 0.03515625 C5.22345703 0.03966797 5.98207031 0.04417969 6.76367188 0.04882812 C8.64326246 0.06064945 10.52281274 0.07858547 12.40234375 0.09765625 C12.40234375 0.42765625 12.40234375 0.75765625 12.40234375 1.09765625 C5.96734375 1.59265625 5.96734375 1.59265625 -0.59765625 2.09765625 C-0.26765625 3.74765625 0.06234375 5.39765625 0.40234375 7.09765625 C-0.58765625 7.09765625 -1.57765625 7.09765625 -2.59765625 7.09765625 C-3.25765625 5.11765625 -3.91765625 3.13765625 -4.59765625 1.09765625 C-3.59765625 0.09765625 -3.59765625 0.09765625 0 0 Z " fill="#737373" transform="translate(116.59765625,87.90234375)"/>
<path d="M0 0 C2.52394612 3.12488567 4.39701907 6.31314387 6 10 C5.67 10.66 5.34 11.32 5 12 C2 11 2 11 0.25 8.25 C-1.06883276 4.82103483 -1.10867421 3.42681118 0 0 Z " fill="#525252" transform="translate(114,115)"/>
<path d="M0 0 C2.375 0.125 2.375 0.125 5 1 C8 5.03448276 8 5.03448276 8 8 C7.01 8.33 6.02 8.66 5 9 C4.6596875 8.071875 4.6596875 8.071875 4.3125 7.125 C2.62070165 4.38589791 1.00755839 3.94975528 -2 3 C-1 1 -1 1 0 0 Z " fill="#585858" transform="translate(109,128)"/>
<path d="M0 0 C1.8125 0.125 1.8125 0.125 4 1 C7 6.03571429 7 6.03571429 7 9 C6.01 9.33 5.02 9.66 4 10 C3.32845067 8.71086513 2.66291141 7.41859796 2 6.125 C1.62875 5.40570313 1.2575 4.68640625 0.875 3.9453125 C0 2 0 2 0 0 Z " fill="#414141" transform="translate(115,95)"/>
<path d="M0 0 C0.99 0 1.98 0 3 0 C3.69710731 1.28650706 4.38242876 2.57940665 5.0625 3.875 C5.63677734 4.95394531 5.63677734 4.95394531 6.22265625 6.0546875 C6.47917969 6.69664063 6.73570313 7.33859375 7 8 C6.67 8.66 6.34 9.32 6 10 C3 9 3 9 1.3125 6.125 C0 3 0 3 0 0 Z " fill="#515151" transform="translate(102,95)"/>
<path d="M0 0 C2.31 0 4.62 0 7 0 C6.34 1.98 5.68 3.96 5 6 C4.01 6 3.02 6 2 6 C2 5.34 2 4.68 2 4 C1.34 4 0.68 4 0 4 C0 2.68 0 1.36 0 0 Z M2 3 C2.66 3.66 3.32 4.32 4 5 C4 4.34 4 3.68 4 3 C3.34 3 2.68 3 2 3 Z " fill="#424242" transform="translate(118,143)"/>
<path d="M0 0 C2.32947183 2.11770166 3.88750845 4.03335588 5 7 C4.67 7.99 4.34 8.98 4 10 C3.34 10 2.68 10 2 10 C-1.07692308 4.58461538 -1.07692308 4.58461538 -0.6875 1.625 C-0.460625 1.08875 -0.23375 0.5525 0 0 Z " fill="#474747" transform="translate(125,111)"/>
<path d="M0 0 C0.99 0 1.98 0 3 0 C6 5.625 6 5.625 6 9 C5.01 9 4.02 9 3 9 C0.50022457 5.66696609 0 4.26696398 0 0 Z " fill="#414141" transform="translate(135,117)"/>
<path d="M0 0 C0.99 0 1.98 0 3 0 C2.01 2.97 1.02 5.94 0 9 C-1.32 9 -2.64 9 -4 9 C-2.80100302 5.9168649 -1.52299523 2.93720508 0 0 Z " fill="#525252" transform="translate(160,95)"/>
<path d="M0 0 C0.99 0.66 1.98 1.32 3 2 C2.67 2.66 2.34 3.32 2 4 C-0.32156597 4.40729228 -2.6568787 4.74438677 -5 5 C-5.33 4.01 -5.66 3.02 -6 2 C-5.01 1.67 -4.02 1.34 -3 1 C-3 1.66 -3 2.32 -3 3 C-2.01 2.01 -1.02 1.02 0 0 Z " fill="#464646" transform="translate(145,125)"/>
<path d="M0 0 C2.15377564 2.62198774 3.40072174 4.64404172 4 8 C2.68 7.67 1.36 7.34 0 7 C-0.93423645 3.98968256 -1.04449911 3.13349732 0 0 Z " fill="#575757" transform="translate(116,162)"/>
<path d="M0 0 C0.99 0 1.98 0 3 0 C3 1.32 3 2.64 3 4 C2.34 4 1.68 4 1 4 C0.67 4.66 0.34 5.32 0 6 C-0.66 6 -1.32 6 -2 6 C-1.125 1.125 -1.125 1.125 0 0 Z " fill="#494949" transform="translate(138,111)"/>
<path d="M0 0 C0.99 0 1.98 0 3 0 C3 1.32 3 2.64 3 4 C2.34 4 1.68 4 1 4 C0.67 4.66 0.34 5.32 0 6 C-0.66 6 -1.32 6 -2 6 C-1.49396008 3.83125748 -1.00016187 2.00032373 0 0 Z " fill="#444444" transform="translate(146,95)"/>
<path d="M0 0 C0.99 0 1.98 0 3 0 C3.66 1.98 4.32 3.96 5 6 C4.01 6 3.02 6 2 6 C0 3 0 3 0 0 Z " fill="#616161" transform="translate(80,95)"/>
<path d="M0 0 C1.32 0.33 2.64 0.66 4 1 C4.33 2.65 4.66 4.3 5 6 C4.01 6 3.02 6 2 6 C1.34 4.02 0.68 2.04 0 0 Z " fill="#272727" transform="translate(91,89)"/>
<path d="M0 0 C3.96 0 7.92 0 12 0 C12 0.33 12 0.66 12 1 C8.04 1 4.08 1 0 1 C0 0.67 0 0.34 0 0 Z " fill="#757575" transform="translate(159,72)"/>
<path d="M0 0 C3.96 0 7.92 0 12 0 C12 0.33 12 0.66 12 1 C8.04 1 4.08 1 0 1 C0 0.67 0 0.34 0 0 Z " fill="#727272" transform="translate(72,72)"/>
<path d="" fill="#545454" transform="translate(0,0)"/>
<path d="M0 0 C3 1 3 1 3 1 Z " fill="#0E0E0E" transform="translate(98,131)"/>
<path d="" fill="#AAAAAA" transform="translate(0,0)"/>
<path d="M0 0 C2 1 2 1 2 1 Z " fill="#3F3F3F" transform="translate(142,131)"/>
<path d="M0 0 C2 1 2 1 2 1 Z " fill="#000000" transform="translate(131,109)"/>
<path d="" fill="#000000" transform="translate(0,0)"/>
<path d="" fill="#000000" transform="translate(0,0)"/>
<path d="" fill="#000000" transform="translate(0,0)"/>
<path d="" fill="#000000" transform="translate(0,0)"/>
<path d="" fill="#000000" transform="translate(0,0)"/>
<path d="" fill="#000000" transform="translate(0,0)"/>
<path d="" fill="#555555" transform="translate(0,0)"/>
<path d="" fill="#555555" transform="translate(0,0)"/>
<path d="" fill="#333333" transform="translate(0,0)"/>
<path d="" fill="#3F3F3F" transform="translate(0,0)"/>
<path d="" fill="#555555" transform="translate(0,0)"/>
<path d="" fill="#000000" transform="translate(0,0)"/>
<path d="" fill="#000000" transform="translate(0,0)"/>
</svg>
